<?xml version="1.0" encoding="utf-8"?>
<!-- Generator: Adobe Illustrator 16.0.0, SVG Export Plug-In . SVG Version: 6.00 Build 0)  -->
<!DOCTYPE svg PUBLIC "-//W3C//DTD SVG 1.1//EN" "http://www.w3.org/Graphics/SVG/1.1/DTD/svg11.dtd">
<svg version="1.1" id="Layer_1" xmlns="http://www.w3.org/2000/svg" xmlns:xlink="http://www.w3.org/1999/xlink" x="0px" y="0px"
	 width="86.5px" height="283.5px" viewBox="0 0 86.5 283.5" enable-background="new 0 0 86.5 283.5" xml:space="preserve">
<g>
	<g>
		<defs>
			<rect id="SVGID_1_" x="6.871" y="5.826" width="75.125" height="268.367"/>
		</defs>
		<clipPath id="SVGID_2_">
			<use xlink:href="#SVGID_1_"  overflow="visible"/>
		</clipPath>
		<path clip-path="url(#SVGID_2_)" fill="#C0BFBF" d="M44.764,6.827c2.294-0.023,4.343,0.443,6.432,1.396
			c5.344,2.44,8.675,7.752,8.675,13.637v34.334c0,0,13,0.5,17,3.5v25.5l2,2.25v13.75c0,0-4.635,1.25-10.969,1.25
			c-4.555,0-2.514,8.223-1.959,10.617c1.254,5.425,3.813,9.209,7.533,13.199c3.549,3.807,7.553,8.904,7.52,14.377
			c-0.167,27.846-0.125,43.896-0.125,71.65v48.829v0.077c0,0-2.975,12-36.145,12h0.182c-33.172,0-37.037-12-37.037-12v-0.077
			v-48.829c0-27.755,0.32-43.805,0.154-71.65c-0.033-5.473,4.123-10.57,7.672-14.377c3.72-3.99,6.334-7.773,7.588-13.199
			c0.554-2.395,2.36-10.617-2.195-10.617c-6.334,0-11.219-1.25-11.219-1.25v-13.75l2-2.25v-25.5c4-3,17-3.5,17-3.5V21.858
			c0-5.953,4.21-11.457,9.624-13.78C40.392,7.264,42.701,6.847,44.764,6.827 M27.996,104.23c0,0,14.485,1.125,33.25,0"/>
	</g>
	<g>
		<defs>
			<rect id="SVGID_3_" x="6.871" y="5.826" width="75.125" height="268.367"/>
		</defs>
		<clipPath id="SVGID_4_">
			<use xlink:href="#SVGID_3_"  overflow="visible"/>
		</clipPath>
		<path clip-path="url(#SVGID_4_)" fill="none" stroke="#000000" stroke-width="2" stroke-miterlimit="10" d="M44.764,6.827
			c2.294-0.023,4.343,0.443,6.432,1.396c5.344,2.44,8.675,7.752,8.675,13.637v34.334c0,0,13,0.5,17,3.5v25.5l2,2.25v13.75
			c0,0-4.635,1.25-10.969,1.25c-4.555,0-2.514,8.223-1.959,10.617c1.254,5.425,3.813,9.209,7.533,13.199
			c3.549,3.807,7.553,8.904,7.52,14.377c-0.167,27.846-0.125,43.896-0.125,71.65v48.829v0.077c0,0-2.975,12-36.145,12h0.182
			c-33.172,0-37.037-12-37.037-12v-0.077v-48.829c0-27.755,0.32-43.805,0.154-71.65c-0.033-5.473,4.123-10.57,7.672-14.377
			c3.72-3.99,6.334-7.773,7.588-13.199c0.554-2.395,2.36-10.617-2.195-10.617c-6.334,0-11.219-1.25-11.219-1.25v-13.75l2-2.25v-25.5
			c4-3,17-3.5,17-3.5V21.858c0-5.953,4.21-11.457,9.624-13.78C40.392,7.264,42.701,6.847,44.764,6.827z M27.996,104.23
			c0,0,14.485,1.125,33.25,0"/>
	</g>
</g>
</svg>
